<svg width="11" height="15" viewBox="0 0 11 15" fill="none" xmlns="http://www.w3.org/2000/svg">
<g clip-path="url(#clip0_5744_1385)">
<path d="M10.4816 0.000486189C10.4979 0.000765486 10.5143 0.00104478 10.5312 0.00133254C10.5771 0.00235307 10.623 0.00417986 10.6689 0.00604174C10.6949 0.00707299 10.7208 0.00810425 10.7476 0.00916674C10.835 0.0255786 10.8855 0.05748 10.9549 0.111597C11.0849 0.303745 10.9758 0.65568 10.9461 0.873939C10.8972 1.2332 10.8546 1.59172 10.8281 1.95326C10.7192 3.40927 10.248 4.7923 9.10682 5.77232C8.88081 5.95737 8.62878 6.09709 8.37261 6.23707C8.09523 6.38883 7.84355 6.55977 7.59632 6.75604C7.58288 6.76666 7.56944 6.77728 7.55559 6.78821C7.2224 7.05375 6.91258 7.35597 6.6496 7.68937C6.61351 7.7311 6.57735 7.77276 6.54112 7.81437C6.1314 8.29947 5.80085 8.85595 5.52199 9.42273C5.50052 9.46612 5.47859 9.50926 5.4566 9.55239C5.10055 10.2618 4.8744 11.0495 4.75052 11.8297C4.74712 11.8511 4.74371 11.8725 4.74021 11.8945C4.68087 12.2924 4.6575 12.6875 4.65895 13.0894C4.65898 13.112 4.659 13.1347 4.65903 13.158C4.66009 13.6232 4.68652 14.0835 4.7826 14.5403C4.80444 14.6505 4.80657 14.758 4.7787 14.8672C4.7205 14.9378 4.67085 14.9936 4.57689 15.0066C4.5598 15.0073 4.54272 15.0081 4.52511 15.0088C4.50826 15.0099 4.49141 15.011 4.47404 15.0121C4.38747 14.9941 4.33575 14.957 4.2828 14.8894C4.23764 14.796 4.20687 14.6991 4.17573 14.6005C4.16613 14.571 4.15653 14.5415 4.14691 14.5121C4.02862 14.1454 3.92811 13.7734 3.83198 13.4005C3.82609 13.3777 3.82609 13.3777 3.82008 13.3544C3.71074 12.9288 3.6256 12.5014 3.56149 12.0672C3.55896 12.0508 3.55644 12.0345 3.55384 12.0177C3.53421 11.8728 3.53487 11.7268 3.53241 11.5809C3.51771 10.7111 3.37318 9.86749 2.71478 9.23321C2.53434 9.06592 2.33332 8.9428 2.11886 8.82271C1.89525 8.69613 1.68727 8.5617 1.48772 8.40049C1.47484 8.3902 1.46197 8.37992 1.44871 8.36932C0.631808 7.71331 0.135234 6.78836 0.0225524 5.75604C0.0111837 5.64506 0.00416561 5.53418 1.14343e-05 5.42271C-0.000918381 5.4012 -0.0018482 5.37968 -0.00280619 5.35752C-0.00643157 5.18931 0.00669365 5.02225 0.0197348 4.85465C0.0215018 4.83152 0.0232688 4.8084 0.0250894 4.78457C0.0656776 4.29741 0.0656776 4.29741 0.180339 4.17826C0.301246 4.1158 0.397302 4.10171 0.532542 4.10274C0.55093 4.10265 0.569317 4.10256 0.588262 4.10246C0.647652 4.10232 0.707017 4.10273 0.766405 4.10326C0.78671 4.10337 0.807016 4.10347 0.827937 4.10358C1.84057 4.10964 2.94425 4.35488 3.69673 5.06715C3.72669 5.0918 3.75674 5.11635 3.7869 5.14076C4.04456 5.3636 4.23326 5.66161 4.3955 5.95604C4.3955 5.97071 4.3955 5.98537 4.3955 6.00049C4.41038 6.00049 4.42526 6.00049 4.44059 6.00049C4.44153 5.98236 4.44247 5.96424 4.44344 5.94557C4.45644 5.73272 4.48585 5.52574 4.5223 5.31576C4.52524 5.2986 4.52818 5.28144 4.53122 5.26376C4.62669 4.70924 4.73745 4.15842 4.91395 3.62271C4.91913 3.60664 4.9243 3.59057 4.92964 3.57401C5.1115 3.01931 5.44695 2.51796 5.81559 2.06715C5.8329 2.04553 5.85022 2.0239 5.86806 2.00161C6.15472 1.65458 6.48256 1.32757 6.85247 1.06715C6.87638 1.05002 6.9003 1.03289 6.92494 1.01524C7.97589 0.279307 9.20432 -0.0249193 10.4816 0.000486189Z" fill="#FF8F1C"/>
</g>
<defs>
<clipPath id="clip0_5744_1385">
<rect width="11" height="15" fill="white"/>
</clipPath>
</defs>
</svg>
