<svg width="670" height="670" viewBox="0 0 670 670" fill="none" xmlns="http://www.w3.org/2000/svg">
<path d="M191 116C285.021 116 379.041 116 475.911 116C475.911 153.632 475.911 191.265 475.911 230.038C423.287 230.038 370.662 230.038 316.443 230.038C316.443 245.605 316.443 261.173 316.443 277.212C363.927 277.212 411.411 277.212 460.333 277.212C460.333 314.573 460.333 351.935 460.333 390.429C412.85 390.429 365.366 390.429 316.443 390.429C316.443 406.267 316.443 422.105 316.443 438.423C370.15 438.423 423.857 438.423 479.191 438.423C479.191 476.597 479.191 514.771 479.191 554.102C384.088 554.102 288.985 554.102 191 554.102C191 409.528 191 264.955 191 116Z" fill="white"/>
</svg>
