<svg width="670" height="670" viewBox="0 0 670 670" fill="none" xmlns="http://www.w3.org/2000/svg">
<path d="M256.528 173.141C256.545 173.476 256.561 173.811 256.578 174.157C258.223 206.795 268.133 238.144 289.93 263.061C290.725 263.999 291.486 264.963 292.254 265.923C294.264 268.387 296.446 270.635 298.701 272.872C299.077 273.252 299.453 273.631 299.84 274.021C302.053 276.23 304.337 278.274 306.777 280.228C307.565 280.86 308.333 281.501 309.089 282.171C314.889 287.275 321.303 291.411 328.02 295.201C328.421 295.428 328.821 295.655 329.234 295.889C329.592 296.089 329.95 296.288 330.319 296.494C331.138 297.023 331.138 297.023 331.548 297.844C331.082 297.85 330.617 297.856 330.137 297.862C316.856 298.008 316.856 298.008 303.672 299.485C303.217 299.559 302.763 299.633 302.294 299.71C281.075 303.323 261.615 312.632 245.87 327.379C245.291 327.886 244.711 328.39 244.128 328.891C241.481 331.2 239.113 333.719 236.851 336.403C236.668 336.617 236.486 336.831 236.297 337.052C219.643 356.619 210.276 381.641 209.795 407.369C209.786 407.737 209.778 408.104 209.769 408.482C209.156 439.2 218.303 469.121 239.82 491.538C245.627 497.564 245.627 497.564 252.019 502.948C252.29 503.157 252.561 503.367 252.841 503.583C269.856 516.714 290.11 524.241 311.461 526.33C312.05 526.388 312.05 526.388 312.651 526.447C316.549 526.789 320.439 526.84 324.349 526.842C324.872 526.843 324.872 526.843 325.406 526.843C341.988 526.823 358.545 524.061 373.773 517.305C374.302 517.071 374.302 517.071 374.842 516.832C385.359 512.128 394.659 505.837 403.159 498.064C403.972 497.328 404.803 496.625 405.646 495.923C410.175 491.959 414.047 487.249 417.637 482.437C417.805 482.214 417.974 481.991 418.148 481.761C436.574 457.292 442.796 425.525 438.968 395.451C437.203 383.051 433.906 371.013 428.295 359.785C428.398 355.74 429.705 352.023 430.909 348.197C431.018 347.844 431.128 347.492 431.241 347.128C435.676 332.901 441.197 319.109 447.562 305.638C447.786 305.164 448.009 304.69 448.238 304.202C451.356 297.589 454.622 291.084 458.221 284.717C458.456 284.298 458.691 283.879 458.933 283.447C462.354 277.359 465.967 271.438 469.844 265.63C470.444 264.73 471.038 263.827 471.629 262.922C478.873 251.86 487.215 239.775 497.576 231.39C499.524 232.614 501.182 233.992 502.854 235.569C503.118 235.817 503.383 236.066 503.655 236.321C506.552 239.074 509.275 241.985 511.982 244.923C512.692 245.691 513.405 246.455 514.121 247.217C516.65 249.918 519.038 252.704 521.353 255.592C521.755 256.082 522.159 256.57 522.563 257.059C533.846 270.725 543.325 285.711 551.278 301.536C551.478 301.929 551.678 302.322 551.883 302.728C566.278 331.247 573.642 363.272 575.465 395.063C575.5 395.609 575.5 395.609 575.535 396.166C577.213 422.977 574.86 450.193 568.496 476.284C568.344 476.913 568.344 476.913 568.188 477.555C562.168 501.983 551.911 525.383 538.16 546.43C537.866 546.883 537.573 547.335 537.27 547.801C535.193 550.96 533.008 554.041 530.781 557.095C530.593 557.353 530.405 557.611 530.211 557.877C527.003 562.26 523.614 566.473 520.123 570.632C519.913 570.883 519.704 571.133 519.489 571.391C514.289 577.61 508.65 583.38 502.931 589.117C502.671 589.378 502.411 589.639 502.143 589.909C499.463 592.598 496.787 595.252 493.886 597.706C493.227 598.302 492.569 598.9 491.913 599.501C489.761 601.441 487.534 603.273 485.277 605.09C484.818 605.464 484.358 605.839 483.899 606.214C454.532 630.085 419.987 646.317 353.301 658.929C352.963 658.964 352.625 658.998 352.276 659.033C350.015 659.258 347.752 659.464 345.486 659.647C345.206 659.67 344.925 659.693 344.636 659.716C338.78 660.167 332.908 660.134 327.039 660.133C325.904 660.133 324.769 660.136 323.634 660.142C313.01 660.194 302.448 659.738 291.886 658.519C291.587 658.485 291.287 658.451 290.979 658.416C255.962 654.408 221.732 643.15 160.881 601.988C160.151 601.363 159.417 600.742 158.683 600.121C154.262 596.371 154.262 596.371 152.267 594.288C151.595 593.616 150.898 593.006 150.172 592.392C148.022 590.522 146.019 588.508 144.01 586.49C143.359 585.837 142.707 585.186 142.054 584.535C139.814 582.295 137.653 580.015 135.595 577.606C134.931 576.877 134.265 576.151 133.596 575.426C131.941 573.608 130.358 571.748 128.815 569.833C128.079 568.92 127.339 568.014 126.592 567.112C116.413 554.775 107.734 541.323 100.34 527.15C100.118 526.727 99.8956 526.303 99.6668 525.867C83.0107 493.909 74.1224 456.782 74.0199 420.722C74.017 420.092 74.0141 419.462 74.0112 418.832C74.0032 416.831 74.0012 414.831 74.0007 412.83C74.0005 412.49 74.0003 412.149 74.0001 411.798C73.9974 402.086 74.0265 392.431 75.2292 382.779C75.3394 381.884 75.4433 380.989 75.5462 380.093C79.7283 343.988 91.5337 309.058 129.446 254.362C129.648 254.118 129.851 253.875 130.06 253.624C135.004 247.711 140.332 242.167 145.787 236.726C146.622 235.893 147.454 235.057 148.287 234.222C148.829 233.679 149.372 233.137 149.914 232.595C150.157 232.351 150.4 232.107 150.651 231.856C152.398 230.116 154.225 228.487 156.092 226.878C156.571 226.458 157.049 226.039 157.527 225.618C163.657 220.254 169.981 215.232 176.589 210.47C176.91 210.236 177.231 210.003 177.562 209.763C185.793 203.802 194.454 198.544 203.432 193.791C204.415 193.268 205.392 192.735 206.368 192.199C219.076 185.276 241.534 173.141 256.528 173.141Z" fill="white"/>
<path d="M573.255 9.00315C574.466 9.00535 575.676 9.00315 576.886 9.00054C591.218 8.99469 591.218 8.99469 593.805 11.3448C596.239 14.0182 596.505 16.2032 596.372 19.722C596.236 21.1584 596.031 22.5803 595.817 24.0068C595.696 24.8444 595.576 25.682 595.456 26.5196C595.361 27.1758 595.361 27.1758 595.263 27.8452C594.168 35.4033 593.183 42.9675 592.401 50.5645C592.36 50.9651 592.318 51.3657 592.276 51.7785C591.681 57.6047 591.194 63.437 590.733 69.2752C587.834 105.849 577.543 144.39 549.639 172.319C548.604 173.348 547.578 174.382 546.561 175.428C544.037 178.006 541.433 180.371 538.57 182.575C538.302 182.783 538.034 182.992 537.757 183.207C531.637 187.945 525.152 191.925 518.278 195.47C511.318 199.073 504.921 203.538 498.806 208.418C498.43 208.711 498.054 209.005 497.667 209.307C491.132 214.448 485.064 220.087 479.18 225.954C478.814 226.318 478.448 226.682 478.071 227.057C476.015 229.119 474.049 231.226 472.159 233.44C471.731 233.929 471.302 234.417 470.872 234.905C468.126 238.039 465.467 241.221 462.936 244.532C462.508 245.092 462.077 245.651 461.646 246.208C440.068 274.117 424.088 307.051 409.745 376.705C409.711 377.034 409.677 377.362 409.642 377.7C408.842 385.494 408.532 393.254 408.541 401.087C408.541 401.488 408.541 401.889 408.542 402.303C408.565 416.021 409.617 429.667 412 443.185C413.489 451.7 413.489 451.7 412.026 454.568C410.53 456.468 408.818 458.043 406.357 458.372C403.789 458.409 401.678 458.21 399.599 456.593C398.208 455.062 397.492 453.547 396.867 451.602C396.724 451.172 396.724 451.172 396.577 450.734C396.265 449.791 395.959 448.847 395.653 447.902C395.435 447.234 395.216 446.565 394.997 445.897C385.37 416.343 375.45 383.867 375.848 352.529C375.955 336.387 373.818 320.728 366.804 306.047C366.603 305.624 366.603 305.624 366.399 305.193C363.18 298.508 358.639 292.659 353.685 287.178C353.317 286.764 353.317 286.764 352.941 286.343C347.75 280.837 340.921 276.718 334.392 273.029C326.423 268.523 318.913 263.471 312.071 257.365C311.527 256.881 310.977 256.402 310.427 255.925C305.608 251.695 301.019 247.146 297.113 242.055C296.624 241.438 296.624 241.438 296.125 240.81C291.957 235.531 288.387 229.939 285.225 224.006C285.084 223.743 284.944 223.48 284.799 223.21C282.405 218.693 280.455 214.024 278.665 209.238C278.552 208.937 278.439 208.636 278.323 208.326C274.015 196.664 271.936 183.909 271.696 171.499C271.688 171.172 271.68 170.846 271.671 170.509C271.466 161.688 272.147 152.89 273.259 144.143C273.317 143.656 273.375 143.17 273.434 142.668C273.868 139.501 274.503 136.071 277.019 133.868C286.81 126.993 311.177 132.099 321.95 133.92C344.386 137.928 365.766 146.54 382.381 162.474C382.621 162.701 382.861 162.928 383.109 163.162C390.766 170.424 397.125 179.168 401.649 188.728C401.649 188.998 401.649 189.269 401.649 189.548C401.919 189.548 402.19 189.548 402.469 189.548C402.457 189.096 402.445 188.644 402.433 188.178C402.435 186.066 402.729 184.025 403.042 181.94C403.103 181.52 403.165 181.1 403.228 180.668C403.433 179.286 403.642 177.905 403.852 176.524C403.925 176.046 403.997 175.568 404.072 175.075C411.83 124.231 411.83 124.231 422.556 102.994C422.718 102.667 422.88 102.34 423.046 102.003C427.929 92.1757 433.902 82.9661 440.594 74.2797C440.771 74.0481 440.949 73.8165 441.132 73.5778C443.313 70.7383 445.537 67.9785 447.961 65.34C448.69 64.5462 449.397 63.7398 450.099 62.9221C456.394 55.7111 456.394 55.7111 459.794 52.888C460.781 52.0431 461.718 51.1557 462.66 50.2617C465.684 47.4001 468.833 44.7845 472.159 42.2835C472.407 42.0963 472.655 41.9092 472.91 41.7164C497.911 22.9076 527.457 11.9346 558.657 9.46683C559.331 9.4125 559.331 9.4125 560.018 9.35707C564.432 9.03914 568.831 8.99359 573.255 9.00315Z" fill="white"/>
</svg>
