<svg width="670" height="670" viewBox="0 0 670 670" fill="none" xmlns="http://www.w3.org/2000/svg">
<path d="M155 116C363.808 116 363.808 116 391.948 125.025C392.313 125.141 392.678 125.258 393.055 125.378C418.807 133.727 443.548 149.443 461.228 170.147C461.562 170.531 461.895 170.915 462.239 171.311C485.862 198.67 496.197 233.856 496.151 269.623C496.15 270.16 496.15 270.16 496.15 270.708C496.139 276.599 495.968 282.433 495.254 288.287C495.203 288.704 495.152 289.12 495.1 289.549C491.601 317.032 480.273 343.59 461.333 363.996C460.549 364.844 459.796 365.706 459.051 366.586C457.727 368.108 456.322 369.541 454.9 370.97C454.684 371.187 454.469 371.405 454.247 371.629C452.543 373.328 450.756 374.916 448.93 376.482C448.672 376.704 448.414 376.926 448.149 377.155C442.221 382.22 435.909 386.776 429.253 390.839C429.833 392.767 430.642 394.495 431.594 396.26C431.743 396.541 431.893 396.821 432.046 397.11C432.531 398.02 433.019 398.929 433.506 399.838C434.013 400.788 434.519 401.738 435.024 402.688C435.361 403.32 435.698 403.953 436.035 404.585C437.397 407.138 438.735 409.703 440.065 412.273C441.592 415.216 443.156 418.135 444.754 421.041C446.822 424.803 448.801 428.609 450.762 432.428C452.424 435.664 454.116 438.879 455.874 442.064C458.013 445.944 460.044 449.875 462.065 453.817C463.987 457.565 465.955 461.282 467.989 464.97C469.825 468.312 471.568 471.699 473.309 475.091C474.972 478.326 476.663 481.541 478.42 484.726C480.56 488.605 482.591 492.537 484.612 496.479C486.534 500.227 488.501 503.943 490.536 507.632C492.372 510.973 494.115 514.361 495.856 517.752C497.519 520.987 499.21 524.202 500.967 527.387C503.105 531.263 505.135 535.19 507.152 539.13C509.208 543.143 511.315 547.121 513.516 551.058C513.704 551.397 513.892 551.735 514.086 552.085C514.25 552.378 514.414 552.67 514.584 552.972C514.931 553.692 514.931 553.692 514.931 554.512C470.559 554.512 426.186 554.512 380.469 554.512C376.14 545.849 371.811 537.185 367.351 528.259C365.998 525.687 364.646 523.115 363.252 520.465C362.535 519.059 361.822 517.653 361.12 516.24C360.942 515.883 360.764 515.526 360.581 515.159C360.204 514.403 359.828 513.646 359.451 512.89C358.851 511.684 358.25 510.479 357.649 509.274C356.158 506.283 354.668 503.292 353.178 500.301C351.913 497.76 350.646 495.219 349.379 492.679C348.795 491.507 348.212 490.335 347.629 489.163C345.739 485.37 343.813 481.6 341.829 477.855C340.022 474.434 338.294 470.974 336.57 467.509C335.984 466.331 335.397 465.153 334.809 463.975C333.352 461.053 331.897 458.131 330.441 455.208C329.205 452.725 327.967 450.242 326.729 447.759C326.158 446.615 325.589 445.47 325.019 444.325C323.361 440.998 321.683 437.685 319.939 434.401C316.939 428.675 314.079 422.876 311.189 417.093C301.043 416.957 290.897 416.822 280.443 416.682C280.443 462.166 280.443 507.65 280.443 554.512C239.047 554.512 197.651 554.512 155 554.512C155 409.803 155 265.094 155 116ZM280.443 231.679C280.443 258.346 280.443 285.014 280.443 312.49C293.595 312.528 293.595 312.528 307.012 312.567C309.767 312.578 312.521 312.589 315.358 312.6C317.858 312.605 317.858 312.605 320.357 312.607C321.458 312.609 322.559 312.613 323.66 312.62C337.302 312.7 350.226 311.411 360.382 301.414C368.261 293.362 370.866 282.391 370.776 271.387C370.49 260.387 366.964 250.562 359.434 242.447C349.129 232.713 335.977 231.471 322.516 231.554C321.178 231.561 319.839 231.561 318.501 231.562C314.612 231.569 310.722 231.586 306.833 231.602C298.124 231.627 289.416 231.652 280.443 231.679Z" fill="white"/>
</svg>
