<svg width="670" height="670" viewBox="0 0 670 670" fill="none" xmlns="http://www.w3.org/2000/svg">
<path d="M332.317 106C332.705 106 333.093 106 333.492 106.001C367.819 106.06 401.447 113.079 481.092 157.558C482.203 158.517 483.337 159.437 484.484 160.353C489.222 164.236 493.545 168.581 497.886 172.897C498.373 173.381 498.861 173.865 499.349 174.348C502.335 177.303 505.083 180.314 507.697 183.606C508.298 184.314 508.908 185.012 509.52 185.71C514.535 191.436 518.831 197.674 523.05 204C523.437 204.571 523.832 205.137 524.242 205.691C525.333 207.184 525.333 207.184 525.292 208.2C524.736 209.436 523.944 209.753 522.767 210.404C522.31 210.661 521.852 210.918 521.381 211.183C520.876 211.46 520.372 211.736 519.867 212.013C519.345 212.304 518.824 212.596 518.303 212.888C517.22 213.495 516.135 214.1 515.049 214.703C512.585 216.074 510.142 217.481 507.697 218.884C506.743 219.43 505.789 219.975 504.835 220.52C503.141 221.489 501.447 222.458 499.753 223.428C494.716 226.312 489.675 229.188 484.621 232.041C480.084 234.604 475.562 237.195 471.04 239.785C468.876 241.023 466.712 242.261 464.548 243.498C463.353 244.181 462.158 244.864 460.963 245.548C460.485 245.821 460.007 246.095 459.528 246.368C459.292 246.503 459.055 246.639 458.811 246.778C454.267 249.376 449.724 251.974 445.18 254.572C444.944 254.708 444.707 254.843 444.463 254.982C443.984 255.256 443.506 255.53 443.027 255.803C441.837 256.484 440.647 257.164 439.457 257.845C437.237 259.115 435.017 260.384 432.796 261.651C431.758 262.242 430.721 262.834 429.684 263.426C428.962 263.839 428.239 264.251 427.516 264.662C427.07 264.917 426.625 265.171 426.166 265.433C425.531 265.795 425.531 265.795 424.883 266.164C423.36 267.052 421.871 267.991 420.39 268.948C419.559 269.34 419.559 269.34 418.329 268.929C417.752 268.165 417.211 267.374 416.689 266.571C414.713 263.607 412.468 260.945 410.13 258.264C409.73 257.787 409.73 257.787 409.321 257.301C407.689 255.37 405.917 253.733 403.981 252.111C403.637 251.808 403.293 251.505 402.938 251.193C381.712 232.824 352.503 227.965 325.252 229.74C302.747 231.506 281.052 239.339 264.385 254.864C263.527 255.658 262.652 256.412 261.756 257.162C245.086 271.774 235.602 294.217 232.214 315.693C232.152 316.069 232.09 316.444 232.027 316.831C228.86 336.841 230.657 358.477 237.134 377.635C237.253 377.992 237.372 378.349 237.495 378.718C241.475 390.517 247.317 401.3 254.761 411.272C254.946 411.521 255.131 411.77 255.321 412.027C259.449 417.56 264.019 422.663 269.519 426.86C269.931 427.191 270.342 427.523 270.767 427.864C273.765 430.266 276.89 432.323 280.23 434.218C280.727 434.5 281.223 434.785 281.717 435.073C292.617 441.414 305.112 444.658 317.483 446.55C317.911 446.617 318.339 446.685 318.78 446.755C332.92 448.891 348.465 448.876 362.576 446.55C363.013 446.481 363.449 446.413 363.899 446.343C381.218 443.574 398.112 436.998 410.777 424.557C411.318 424.029 411.872 423.513 412.426 422.998C418.511 417.219 422.549 409.956 426.528 402.657C395.954 402.657 365.381 402.657 333.88 402.657C333.88 367.326 333.88 331.995 333.88 295.593C407.474 295.593 481.067 295.593 556.89 295.593C556.89 403.416 556.89 403.416 535.983 447.37C535.807 447.741 535.632 448.113 535.451 448.496C531.152 457.528 526.142 466.245 520.405 474.444C520.24 474.681 520.074 474.919 519.903 475.164C516.326 480.29 512.525 485.235 508.517 490.032C508.336 490.248 508.156 490.464 507.97 490.686C503.425 496.108 498.595 501.222 493.605 506.235C493.264 506.578 492.923 506.921 492.571 507.275C490.573 509.269 488.522 511.166 486.38 513.003C485.906 513.422 485.432 513.842 484.959 514.263C481.195 517.586 477.292 520.676 473.261 523.669C472.964 523.891 472.666 524.113 472.36 524.342C444.686 544.937 411.419 557.32 373.133 562.536C372.811 562.577 372.49 562.619 372.159 562.662C361.412 564.033 350.706 564.425 339.886 564.409C338.52 564.407 337.154 564.41 335.788 564.417C322.027 564.492 308.315 563.72 294.702 561.614C294.393 561.567 294.084 561.52 293.765 561.471C269.485 557.67 246.391 550.272 224.425 539.257C224.027 539.058 223.628 538.859 223.218 538.654C215.056 534.559 207.24 529.825 199.829 524.489C199.522 524.269 199.216 524.049 198.901 523.823C194.299 520.506 189.829 517.056 185.481 513.413C185.232 513.205 184.983 512.997 184.727 512.782C183.994 512.166 183.263 511.547 182.534 510.927C182.33 510.754 182.126 510.581 181.916 510.402C177.516 506.619 173.357 502.58 169.264 498.47C168.512 497.716 167.759 496.965 167.006 496.214C164.604 493.812 162.257 491.398 160.064 488.801C159.646 488.326 159.226 487.852 158.805 487.38C155.719 483.88 152.84 480.26 150.045 476.524C149.444 475.726 148.835 474.936 148.222 474.149C142.758 467.083 137.896 459.464 133.565 451.655C133.178 450.958 132.787 450.262 132.394 449.568C126.509 439.167 121.718 428.317 117.84 417.015C117.583 416.269 117.583 416.269 117.321 415.509C112.234 400.595 108.861 385.371 106.874 369.738C106.832 369.417 106.791 369.095 106.748 368.764C105.409 358.256 104.975 347.754 105.001 337.172C105.003 336.239 105.004 335.307 105.005 334.375C105.018 324.955 105.269 315.622 106.361 306.258C106.418 305.736 106.475 305.213 106.534 304.675C108.557 286.404 112.887 268.577 119.07 251.291C119.21 250.899 119.21 250.899 119.352 250.499C122.356 242.135 126.146 234.192 130.138 226.268C130.422 225.702 130.422 225.702 130.712 225.125C137.622 211.448 146.567 198.496 156.554 186.888C157.575 185.691 158.566 184.474 159.552 183.247C160.777 181.739 162.042 180.341 163.442 178.995C164.12 178.317 164.736 177.616 165.353 176.883C167.337 174.6 169.483 172.479 171.623 170.345C172.335 169.635 173.045 168.923 173.755 168.21C176.092 165.87 178.451 163.599 180.971 161.455C181.604 160.875 182.237 160.294 182.867 159.712C184.933 157.846 187.099 156.136 189.298 154.432C190.301 153.654 191.29 152.863 192.27 152.057C195.98 149.014 199.846 146.274 203.835 143.609C204.649 143.062 205.458 142.508 206.264 141.949C233.415 123.262 265.541 112.54 332.317 106Z" fill="white"/>
</svg>
