<svg width="670" height="670" viewBox="0 0 670 670" fill="none" xmlns="http://www.w3.org/2000/svg">
<path d="M19 116.053C64.5899 116.053 110.18 116.053 157.151 116.053C161.382 132.989 165.612 149.923 169.779 166.874C171.735 174.832 173.699 182.788 175.664 190.743C176.577 194.439 177.49 198.135 178.403 201.831C178.537 202.375 178.537 202.375 178.674 202.929C180.605 210.749 182.532 218.57 184.458 226.39C186.969 236.581 189.482 246.77 191.997 256.959C194.745 268.096 197.491 279.233 200.235 290.37C202.117 298.01 204 305.648 205.887 313.287C207.367 319.279 208.845 325.272 210.323 331.265C211.14 334.579 211.958 337.893 212.777 341.206C213.177 342.826 213.576 344.446 213.974 346.066C214.146 346.763 214.318 347.459 214.491 348.156C214.717 349.067 214.941 349.98 215.165 350.892C215.284 351.377 215.404 351.861 215.527 352.36C215.773 353.563 215.773 353.563 215.773 355.204C216.044 355.204 216.314 355.204 216.593 355.204C216.631 354.983 216.669 354.761 216.708 354.533C217.326 351.18 218.291 347.936 219.256 344.67C219.445 344.026 219.634 343.382 219.823 342.739C220.336 340.988 220.851 339.239 221.367 337.489C221.919 335.615 222.469 333.741 223.019 331.866C223.953 328.684 224.888 325.503 225.824 322.322C227.211 317.606 228.595 312.889 229.977 308.171C230.431 306.623 230.885 305.075 231.338 303.527C231.451 303.143 231.564 302.759 231.68 302.363C232.956 298.01 234.233 293.658 235.51 289.305C235.979 287.706 236.448 286.108 236.917 284.509C237.091 283.916 237.091 283.916 237.268 283.311C238.543 278.966 239.818 274.62 241.092 270.275C241.206 269.886 241.32 269.498 241.438 269.097C242.013 267.135 242.588 265.173 243.164 263.211C244.201 259.674 245.238 256.138 246.276 252.601C246.852 250.636 247.429 248.67 248.005 246.704C248.236 245.918 248.466 245.132 248.697 244.345C248.811 243.956 248.925 243.567 249.043 243.166C261.149 201.889 261.149 201.889 261.495 200.71C261.725 199.923 261.956 199.137 262.187 198.351C262.763 196.384 263.34 194.418 263.917 192.451C264.951 188.927 265.984 185.404 267.017 181.88C267.588 179.934 268.159 177.987 268.73 176.041C268.843 175.655 268.956 175.269 269.073 174.871C270.645 169.511 272.217 164.151 273.79 158.792C274.67 155.793 275.55 152.794 276.43 149.795C277.14 147.375 277.85 144.955 278.56 142.535C279.003 141.025 279.446 139.515 279.889 138.005C280.09 137.321 280.29 136.638 280.491 135.955C282.438 129.325 284.358 122.689 286.284 116.053C318.345 116.053 350.407 116.053 383.441 116.053C391.414 142.804 391.414 142.804 394.786 154.372C395.617 157.224 396.451 160.076 397.284 162.928C397.611 164.045 397.937 165.162 398.263 166.279C400.622 174.355 402.99 182.428 405.358 190.501C405.707 191.688 406.055 192.875 406.403 194.062C407.456 197.651 408.509 201.24 409.562 204.829C411.071 209.973 412.58 215.117 414.089 220.262C414.203 220.65 414.317 221.039 414.434 221.44C415.01 223.402 415.585 225.364 416.16 227.326C417.198 230.863 418.235 234.399 419.272 237.936C419.849 239.901 420.425 241.867 421.002 243.833C421.232 244.619 421.463 245.405 421.693 246.191C423.077 250.909 423.077 250.909 423.423 252.088C423.654 252.874 423.884 253.661 424.115 254.447C424.691 256.413 425.268 258.379 425.845 260.345C426.881 263.877 427.917 267.41 428.953 270.942C429.527 272.9 430.101 274.858 430.675 276.816C430.789 277.204 430.903 277.592 431.02 277.992C432.668 283.609 434.315 289.227 435.962 294.844C437.031 298.488 438.099 302.131 439.167 305.774C439.282 306.167 439.398 306.559 439.516 306.963C442.012 315.475 444.509 323.987 447.011 332.497C447.108 332.829 447.206 333.16 447.306 333.502C448.219 336.608 449.133 339.714 450.046 342.82C450.291 343.652 450.536 344.485 450.781 345.317C451.074 346.314 451.367 347.311 451.661 348.308C451.79 348.746 451.918 349.184 452.051 349.635C452.162 350.01 452.272 350.385 452.386 350.772C452.776 352.111 453.159 353.452 453.541 354.794C455.166 349.093 456.624 343.358 458.042 337.602C458.276 336.655 458.511 335.709 458.745 334.762C459.368 332.244 459.99 329.725 460.611 327.207C461.261 324.574 461.912 321.941 462.563 319.308C464.067 313.225 465.568 307.141 467.069 301.057C467.266 300.26 467.462 299.463 467.659 298.666C469.411 291.568 471.16 284.469 472.907 277.37C474.697 270.099 476.491 262.829 478.286 255.559C480.972 244.678 483.655 233.795 486.337 222.912C488.844 212.734 491.354 202.557 493.865 192.38C496.346 182.328 498.826 172.276 501.304 162.223C501.758 160.379 502.213 158.534 502.668 156.689C504.149 150.684 505.627 144.677 507.098 138.669C507.67 136.331 508.244 133.992 508.817 131.654C509.284 129.752 509.749 127.85 510.213 125.947C510.497 124.784 510.782 123.621 511.068 122.459C511.264 121.659 511.458 120.86 511.652 120.061C511.768 119.589 511.884 119.118 512.004 118.633C512.104 118.221 512.205 117.81 512.309 117.386C512.573 116.463 512.573 116.463 512.983 116.053C513.716 116.013 514.45 116.002 515.185 116.002C515.905 116.001 515.905 116.001 516.641 116C517.176 116.001 517.71 116.002 518.261 116.004C518.83 116.003 519.398 116.003 519.967 116.003C521.537 116.002 523.106 116.003 524.676 116.005C526.365 116.007 528.055 116.007 529.745 116.006C532.675 116.006 535.605 116.007 538.535 116.01C542.772 116.013 547.009 116.014 551.245 116.014C558.118 116.015 564.991 116.018 571.863 116.022C578.541 116.026 585.219 116.029 591.897 116.03C592.309 116.031 592.72 116.031 593.144 116.031C595.207 116.031 597.271 116.032 599.334 116.032C616.464 116.037 633.594 116.044 650.724 116.053C650.596 116.705 650.468 117.356 650.339 118.007C650.267 118.37 650.196 118.733 650.122 119.107C649.836 120.482 649.476 121.829 649.095 123.181C648.98 123.595 648.98 123.595 648.862 124.018C648.607 124.928 648.35 125.837 648.093 126.746C647.909 127.402 647.725 128.058 647.541 128.714C647.043 130.489 646.543 132.263 646.043 134.038C645.618 135.545 645.194 137.053 644.77 138.56C641.441 150.402 638.087 162.237 634.724 174.07C631.619 184.998 628.525 195.93 625.436 206.863C625.193 207.721 624.951 208.58 624.708 209.439C623.73 212.901 622.751 216.363 621.773 219.826C620.08 225.821 618.385 231.816 616.691 237.811C616.573 238.229 616.455 238.647 616.333 239.077C615.737 241.186 615.141 243.295 614.545 245.404C613.469 249.209 612.394 253.013 611.319 256.818C610.721 258.933 610.123 261.048 609.525 263.164C609.286 264.01 609.047 264.856 608.807 265.702C596.97 307.582 585.133 349.461 572.937 392.61C572.819 393.029 572.701 393.448 572.579 393.879C572.339 394.725 572.1 395.571 571.861 396.417C571.263 398.532 570.666 400.647 570.068 402.762C568.991 406.571 567.915 410.38 566.838 414.189C566.24 416.306 565.641 418.424 565.043 420.541C564.924 420.96 564.806 421.379 564.684 421.811C563.019 427.7 561.355 433.589 559.69 439.478C557.063 448.775 554.435 458.071 551.808 467.367C551.058 470.018 550.309 472.67 549.559 475.321C546.229 487.104 542.897 498.887 539.562 510.669C538.636 513.937 537.712 517.206 536.788 520.474C535.607 524.65 534.425 528.827 533.241 533.002C532.623 535.184 532.005 537.366 531.388 539.549C530.819 541.564 530.248 543.579 529.676 545.594C529.467 546.331 529.258 547.069 529.05 547.807C528.767 548.809 528.483 549.81 528.198 550.811C528.074 551.253 528.074 551.253 527.948 551.704C527.378 553.698 527.378 553.698 526.921 554.155C526.263 554.195 525.603 554.206 524.944 554.206C524.298 554.207 524.298 554.207 523.639 554.208C523.16 554.207 522.681 554.206 522.187 554.204C521.683 554.205 521.179 554.205 520.659 554.205C519.253 554.206 517.847 554.205 516.441 554.203C514.928 554.201 513.414 554.201 511.9 554.202C509.275 554.202 506.651 554.201 504.026 554.198C500.231 554.195 496.436 554.194 492.641 554.193C486.484 554.193 480.327 554.19 474.171 554.186C468.189 554.182 462.207 554.179 456.225 554.178C455.856 554.177 455.488 554.177 455.108 554.177C453.26 554.177 451.411 554.176 449.563 554.176C434.218 554.171 418.873 554.164 403.528 554.155C403.332 553.639 403.137 553.123 402.942 552.607C402.833 552.32 402.725 552.032 402.613 551.736C402.146 550.457 401.763 549.159 401.38 547.853C401.296 547.568 401.212 547.283 401.126 546.989C400.848 546.043 400.572 545.097 400.296 544.151C400.097 543.471 399.897 542.79 399.697 542.109C399.268 540.647 398.84 539.184 398.412 537.721C397.727 535.377 397.04 533.034 396.353 530.691C395.514 527.832 394.676 524.972 393.839 522.112C392.379 517.129 390.917 512.147 389.452 507.165C389.347 506.81 389.243 506.454 389.135 506.087C388.609 504.298 388.083 502.508 387.557 500.719C386.599 497.462 385.641 494.204 384.684 490.947C384.15 489.13 383.616 487.313 383.082 485.496C382.868 484.77 382.655 484.044 382.441 483.317C382.336 482.958 382.23 482.598 382.121 482.228C374.968 457.893 367.816 433.558 360.663 409.223C360.504 408.684 360.504 408.684 360.343 408.134C360.129 407.407 359.916 406.681 359.702 405.955C359.168 404.138 358.634 402.321 358.1 400.504C357.142 397.244 356.184 393.984 355.226 390.724C354.695 388.92 354.165 387.116 353.635 385.311C353.53 384.953 353.424 384.596 353.316 384.227C351.77 378.966 350.223 373.706 348.676 368.446C347.667 365.015 346.658 361.584 345.649 358.153C345.487 357.601 345.487 357.601 345.321 357.039C341.886 345.357 338.463 333.671 335.067 321.977C334.232 324.146 333.491 326.311 332.844 328.543C332.752 328.856 332.66 329.169 332.566 329.492C332.261 330.531 331.959 331.57 331.656 332.609C331.438 333.354 331.22 334.1 331.002 334.845C330.534 336.443 330.067 338.041 329.601 339.639C328.857 342.188 328.111 344.737 327.366 347.285C326.594 349.922 325.822 352.559 325.051 355.196C322.678 363.314 320.294 371.429 317.907 379.543C317.379 381.338 316.852 383.133 316.324 384.929C315.584 387.445 314.844 389.961 314.104 392.478C312.723 397.176 311.342 401.874 309.961 406.572C309.855 406.931 309.75 407.291 309.641 407.662C309.106 409.481 308.572 411.299 308.037 413.118C307.076 416.387 306.115 419.657 305.154 422.927C304.62 424.743 304.086 426.559 303.553 428.375C303.339 429.101 303.126 429.828 302.912 430.554C302.754 431.094 302.754 431.094 302.592 431.644C291.382 469.78 291.382 469.78 291.062 470.87C290.849 471.596 290.635 472.323 290.422 473.049C289.888 474.866 289.354 476.683 288.82 478.5C287.862 481.758 286.904 485.017 285.946 488.275C285.417 490.077 284.887 491.879 284.357 493.681C284.252 494.039 284.147 494.396 284.039 494.764C282.598 499.666 281.158 504.567 279.717 509.468C278.915 512.194 278.113 514.921 277.311 517.648C276.771 519.486 276.231 521.324 275.69 523.163C275.587 523.512 275.485 523.861 275.379 524.22C275.193 524.852 275.007 525.485 274.821 526.117C272.074 535.46 269.34 544.808 266.606 554.155C225.751 554.155 184.896 554.155 142.803 554.155C141.309 549.42 139.839 544.705 138.505 539.928C138.336 539.326 138.167 538.724 137.998 538.123C137.636 536.836 137.275 535.549 136.914 534.261C136.329 532.171 135.742 530.082 135.155 527.993C134.949 527.261 134.743 526.53 134.538 525.798C134.435 525.431 134.331 525.064 134.225 524.685C133.907 523.553 133.588 522.42 133.27 521.288C131.015 513.259 128.749 505.233 126.481 497.208C125.922 495.229 125.363 493.251 124.804 491.272C120.445 475.839 116.083 460.406 111.72 444.974C110.046 439.052 108.372 433.129 106.698 427.207C101.654 409.359 96.6084 391.511 91.5602 373.664C86.3924 355.394 81.2273 337.124 76.0637 318.853C74.3979 312.959 72.7321 307.065 71.0661 301.171C70.9477 300.751 70.8292 300.332 70.7071 299.9C70.1086 297.783 69.5101 295.665 68.9116 293.548C67.8351 289.739 66.7588 285.931 65.6824 282.123C65.0845 280.008 64.4867 277.893 63.8889 275.778C63.6498 274.932 63.4106 274.086 63.1715 273.24C63.0531 272.821 62.9348 272.402 62.8128 271.97C58.628 257.164 54.4431 242.359 50.2583 227.553C50.0807 226.924 50.0807 226.924 49.8996 226.284C49.6604 225.437 49.4213 224.591 49.1822 223.745C48.5842 221.63 47.9863 219.514 47.3883 217.399C46.3136 213.597 45.2389 209.794 44.1643 205.992C43.5683 203.884 42.9724 201.775 42.3764 199.666C42.2584 199.249 42.1403 198.831 42.0186 198.401C40.0699 191.506 38.1206 184.611 36.1712 177.716C34.1388 170.528 32.1073 163.34 30.0764 156.151C28.8183 151.698 27.5593 147.245 26.2994 142.792C25.4325 139.729 24.5665 136.665 23.701 133.601C23.2001 131.828 22.6989 130.056 22.1968 128.283C21.7375 126.662 21.2791 125.04 20.8215 123.418C20.655 122.828 20.4882 122.239 20.321 121.65C20.0949 120.853 19.8703 120.056 19.6457 119.259C19.4573 118.593 19.4573 118.593 19.2651 117.913C19 116.873 19 116.873 19 116.053Z" fill="white"/>
</svg>
